<svg width="56" height="56" viewBox="0 0 56 56" fill="none" xmlns="http://www.w3.org/2000/svg">
<circle cx="28" cy="28" r="28" fill="#EBEBEB"/>
<path d="M37 28.2069C37 27.6015 36.9464 27.0268 36.8544 26.4674H28.1954V29.9234H33.1533C32.931 31.0575 32.2797 32.0153 31.3142 32.6667V34.9655H34.272C36.0038 33.364 37 31.0038 37 28.2069Z" fill="#4285F4"/>
<path d="M28.1954 37.1954C30.6782 37.1954 32.7548 36.3678 34.272 34.9655L31.3142 32.6667C30.4866 33.2184 29.4368 33.5556 28.1954 33.5556C25.7969 33.5556 23.7663 31.9387 23.0383 29.7548H19.9885V32.1226C21.4981 35.1265 24.6015 37.1954 28.1954 37.1954Z" fill="#34A853"/>
<path d="M23.0383 29.7548C22.8468 29.203 22.7471 28.613 22.7471 28C22.7471 27.387 22.8544 26.7969 23.0383 26.2452V23.8774H19.9885C19.3602 25.1188 19 26.5134 19 28C19 29.4866 19.3602 30.8812 19.9885 32.1226L23.0383 29.7548Z" fill="#FBBC05"/>
<path d="M28.1954 22.4444C29.5517 22.4444 30.7625 22.9119 31.7203 23.8238L34.341 21.2031C32.7548 19.7165 30.6782 18.8046 28.1954 18.8046C24.6015 18.8046 21.4981 20.8736 19.9885 23.8774L23.0383 26.2452C23.7663 24.0613 25.7969 22.4444 28.1954 22.4444Z" fill="#EA4335"/>
</svg>
