<svg width="52" height="47" viewBox="0 0 52 47" fill="none" xmlns="http://www.w3.org/2000/svg">
<path fill-rule="evenodd" clip-rule="evenodd" d="M26 4C14.95 4 6 12.95 6 24C6 32.85 11.725 40.325 19.675 42.975C20.675 43.15 21.05 42.55 21.05 42.025C21.05 41.55 21.025 39.975 21.025 38.3C16 39.225 14.7 37.075 14.3 35.95C14.075 35.375 13.1 33.6 12.25 33.125C11.55 32.75 10.55 31.825 12.225 31.8C13.8 31.775 14.925 33.25 15.3 33.85C17.1 36.875 19.975 36.025 21.125 35.5C21.3 34.2 21.825 33.325 22.4 32.825C17.95 32.325 13.3 30.6 13.3 22.95C13.3 20.775 14.075 18.975 15.35 17.575C15.15 17.075 14.45 15.025 15.55 12.275C15.55 12.275 17.225 11.75 21.05 14.325C22.65 13.875 24.35 13.65 26.05 13.65C27.75 13.65 29.45 13.875 31.05 14.325C34.875 11.725 36.55 12.275 36.55 12.275C37.65 15.025 36.95 17.075 36.75 17.575C38.025 18.975 38.8 20.75 38.8 22.95C38.8 30.625 34.125 32.325 29.675 32.825C30.4 33.45 31.025 34.65 31.025 36.525C31.025 39.2 31 41.35 31 42.025C31 42.55 31.375 43.175 32.375 42.975C36.3454 41.6346 39.7954 39.0829 42.2396 35.6791C44.6838 32.2752 45.9989 28.1905 46 24C46 12.95 37.05 4 26 4Z" fill="#9F9F9F"/>
</svg>
