<svg width="56" height="56" viewBox="0 0 56 56" fill="none" xmlns="http://www.w3.org/2000/svg">
<circle cx="28" cy="28" r="28" fill="black"/>
<circle cx="28" cy="28" r="12" fill="white"/>
<path d="M28 16C21.37 16 16 21.37 16 28C15.9986 30.519 16.7903 32.9745 18.263 35.0181C19.7356 37.0618 21.8144 38.5899 24.2044 39.3856C24.8044 39.49 25.03 39.13 25.03 38.8144C25.03 38.53 25.0144 37.5856 25.0144 36.58C22 37.1356 21.22 35.8456 20.98 35.17C20.8444 34.8244 20.26 33.76 19.75 33.4744C19.33 33.25 18.73 32.6944 19.7344 32.68C20.68 32.6644 21.3544 33.55 21.58 33.91C22.66 35.7244 24.3844 35.2144 25.0744 34.9C25.18 34.12 25.4944 33.5956 25.84 33.2956C23.17 32.9956 20.38 31.96 20.38 27.37C20.38 26.0644 20.8444 24.9856 21.61 24.1456C21.49 23.8456 21.07 22.6156 21.73 20.9656C21.73 20.9656 22.7344 20.65 25.03 22.1944C26.0069 21.9237 27.0163 21.7876 28.03 21.79C29.05 21.79 30.07 21.9244 31.03 22.1944C33.3256 20.6344 34.33 20.9656 34.33 20.9656C34.99 22.6156 34.57 23.8456 34.45 24.1456C35.2144 24.9856 35.68 26.05 35.68 27.37C35.68 31.9756 32.8756 32.9956 30.2056 33.2956C30.64 33.67 31.0156 34.39 31.0156 35.5156C31.0156 37.12 31 38.41 31 38.8156C31 39.13 31.2256 39.5044 31.8256 39.3844C34.2074 38.58 36.277 37.0489 37.7432 35.0067C39.2093 32.9645 39.9982 30.514 39.9988 28C39.9988 21.37 34.6288 16 27.9988 16" fill="black"/>
</svg>
