<svg width="100" height="100" viewBox="0 0 100 100" fill="none" xmlns="http://www.w3.org/2000/svg">
<circle cx="50" cy="50" r="50" fill="#D2D2D2"/>
<path fill-rule="evenodd" clip-rule="evenodd" d="M18 48.8765C18.2015 48.8724 18.4034 48.8703 18.6058 48.8703C35.2997 48.8703 48.8392 62.9162 48.8941 80.2645C48.9489 62.9162 62.4884 48.8703 79.1824 48.8703C79.7926 48.8703 80.3986 48.8891 80.9999 48.9261V48.8144C80.3986 48.8514 79.7926 48.8702 79.1824 48.8702C62.6569 48.8702 49.2224 35.1062 48.8999 18H48.8883C48.5657 35.1062 35.1313 48.8702 18.6058 48.8702C18.4034 48.8702 18.2014 48.8681 18 48.864V48.8765ZM48.8941 80.4761C48.8935 80.6511 48.8916 80.8257 48.8883 81H48.8999C48.8966 80.8257 48.8946 80.6511 48.8941 80.4761Z" fill="white"/>
<circle cx="80" cy="80" r="20" fill="#F3CB3B"/>
<path d="M73 80H80M80 80H87M80 80V73M80 80V87" stroke="white" stroke-width="2" stroke-linecap="round" stroke-linejoin="round"/>
</svg>
