<svg width="51" height="48" viewBox="0 0 51 48" fill="none" xmlns="http://www.w3.org/2000/svg">
<path fill-rule="evenodd" clip-rule="evenodd" d="M6.49193 36.1575C6.45527 35.7929 6.43649 35.423 6.43649 35.0487C6.43649 34.659 6.45684 34.274 6.49655 33.8948C6.11312 29.2313 3.40482 25.4709 2 24.0974H27.8795L37.7374 24.0974C43.7857 24.0974 48.6887 29.0004 48.6887 35.0487C48.6887 41.0969 43.7857 46 37.7374 46H27.8795H17.3878H2C3.39931 44.6007 6.0919 40.8046 6.49193 36.1575Z" fill="#F37525"/>
<path fill-rule="evenodd" clip-rule="evenodd" d="M33.0573 45.8511H37.5822C43.6745 45.8511 48.6133 40.9814 48.6133 34.9742C48.6133 28.9671 43.6745 24.0974 37.5822 24.0974H33.0573C39.1496 24.0974 44.0884 28.9671 44.0884 34.9742C44.0884 40.9814 39.1496 45.8511 33.0573 45.8511Z" fill="#ED4323"/>
<mask id="path-3-outside-1_48_4836" maskUnits="userSpaceOnUse" x="0.511444" y="22.0974" width="50" height="26" fill="black">
<rect fill="white" x="0.511444" y="22.0974" width="50" height="26"/>
<path fill-rule="evenodd" clip-rule="evenodd" d="M16.8325 24.0974H2.51144C4.05966 25.7124 7.15611 30.1489 7.15611 34.9742C7.15611 39.7996 4.05966 44.2361 2.51144 45.8511H16.8325H19.4451H37.3464C43.4387 45.8511 48.3775 40.9814 48.3775 34.9742C48.3775 28.9671 43.4387 24.0974 37.3464 24.0974H19.4451H16.8325Z"/>
</mask>
<path d="M2.51144 24.0974V22.0974C1.7102 22.0974 0.986295 22.5755 0.671872 23.3125C0.357449 24.0495 0.513205 24.903 1.06767 25.4814L2.51144 24.0974ZM2.51144 45.8511L1.06767 44.4671C0.513205 45.0455 0.357449 45.899 0.671872 46.636C0.986295 47.3729 1.7102 47.8511 2.51144 47.8511V45.8511ZM2.51144 26.0974H16.8325V22.0974H2.51144V26.0974ZM9.15611 34.9742C9.15611 32.1482 8.25502 29.5181 7.19926 27.4296C6.14319 25.3405 4.8675 23.665 3.95521 22.7133L1.06767 25.4814C1.70361 26.1448 2.75025 27.495 3.62946 29.2342C4.50897 30.974 5.15611 32.9749 5.15611 34.9742H9.15611ZM3.95521 47.2351C4.8675 46.2835 6.14319 44.6079 7.19926 42.5188C8.25502 40.4303 9.15611 37.8003 9.15611 34.9742H5.15611C5.15611 36.9735 4.50897 38.9744 3.62946 40.7143C2.75025 42.4535 1.70361 43.8037 1.06767 44.4671L3.95521 47.2351ZM16.8325 43.8511H2.51144V47.8511H16.8325V43.8511ZM16.8325 47.8511H19.4451V43.8511H16.8325V47.8511ZM19.4451 47.8511H37.3464V43.8511H19.4451V47.8511ZM37.3464 47.8511C44.5166 47.8511 50.3775 42.1124 50.3775 34.9742H46.3775C46.3775 39.8504 42.3608 43.8511 37.3464 43.8511V47.8511ZM50.3775 34.9742C50.3775 27.8361 44.5166 22.0974 37.3464 22.0974V26.0974C42.3608 26.0974 46.3775 30.0981 46.3775 34.9742H50.3775ZM37.3464 22.0974H19.4451V26.0974H37.3464V22.0974ZM19.4451 22.0974H16.8325V26.0974H19.4451V22.0974Z" fill="#141313" mask="url(#path-3-outside-1_48_4836)"/>
<path fill-rule="evenodd" clip-rule="evenodd" d="M2.82272 46H10.1055H17.7465H17.7867C23.835 46 28.7381 41.0969 28.7381 35.0487C28.7381 29.0004 23.835 24.0974 17.7867 24.0974H17.7465H10.1055H2.82272C4.08382 25.4744 6.51802 29.2505 6.85152 33.9306C6.81424 34.2982 6.79515 34.6712 6.79515 35.0487C6.79515 35.4116 6.81281 35.7705 6.84731 36.1244C6.49807 40.7866 4.07864 44.5974 2.82272 46Z" fill="#FADA80"/>
<mask id="path-6-outside-2_48_4836" maskUnits="userSpaceOnUse" x="1.54535" y="22.2947" width="29" height="26" fill="black">
<rect fill="white" x="1.54535" y="22.2947" width="29" height="26"/>
<path fill-rule="evenodd" clip-rule="evenodd" d="M3.54535 45.6054H10.4235H17.3656C23.2504 45.6054 28.0209 40.8348 28.0209 34.95C28.0209 29.0652 23.2504 24.2947 17.3656 24.2947H10.4235H3.54535C4.7372 25.6355 7.03854 29.3137 7.35098 33.8716C7.31534 34.2263 7.29708 34.586 7.29708 34.95C7.29708 35.3002 7.31397 35.6464 7.34698 35.9879C7.01946 40.528 4.73226 44.2398 3.54535 45.6054Z"/>
</mask>
<path d="M3.54535 45.6054L2.03584 44.2934C1.52182 44.8847 1.4005 45.7218 1.72546 46.4348C2.05042 47.1478 2.7618 47.6054 3.54535 47.6054L3.54535 45.6054ZM3.54535 24.2947V22.2947C2.75776 22.2947 2.0435 22.7569 1.72086 23.4754C1.39823 24.1938 1.5273 25.0348 2.05055 25.6234L3.54535 24.2947ZM7.35098 33.8716L9.34095 34.0716C9.3522 33.9597 9.35399 33.8471 9.34629 33.7349L7.35098 33.8716ZM7.34698 35.9879L9.3418 36.1318C9.34988 36.0198 9.34851 35.9073 9.33771 35.7955L7.34698 35.9879ZM10.4235 43.6054H3.54535V47.6054H10.4235V43.6054ZM17.3656 43.6054H10.4235V47.6054H17.3656V43.6054ZM26.0209 34.95C26.0209 39.7302 22.1458 43.6054 17.3656 43.6054V47.6054C24.355 47.6054 30.0209 41.9394 30.0209 34.95H26.0209ZM17.3656 26.2947C22.1458 26.2947 26.0209 30.1698 26.0209 34.95H30.0209C30.0209 27.9607 24.355 22.2947 17.3656 22.2947V26.2947ZM10.4235 26.2947H17.3656V22.2947H10.4235V26.2947ZM3.54535 26.2947H10.4235V22.2947H3.54535V26.2947ZM9.34629 33.7349C8.99731 28.6438 6.45901 24.5621 5.04015 22.9659L2.05055 25.6234C3.0154 26.7089 5.07976 29.9835 5.35566 34.0084L9.34629 33.7349ZM9.29708 34.95C9.29708 34.6529 9.31198 34.3599 9.34095 34.0716L5.361 33.6716C5.31869 34.0926 5.29708 34.5191 5.29708 34.95H9.29708ZM9.33771 35.7955C9.31087 35.5178 9.29708 35.2358 9.29708 34.95H5.29708C5.29708 35.3645 5.31708 35.775 5.35626 36.1803L9.33771 35.7955ZM5.05486 46.9174C6.45828 45.3027 8.97648 41.1959 9.3418 36.1318L5.35217 35.844C5.06243 39.8602 3.00624 43.1769 2.03584 44.2934L5.05486 46.9174Z" fill="#141313" mask="url(#path-6-outside-2_48_4836)"/>
<path d="M7.14194 35.3447H24.1103" stroke="#141313" stroke-width="2" stroke-linecap="round"/>
<path d="M5.29086 29.425H22.2592" stroke="#141313" stroke-width="2" stroke-linecap="round"/>
<path d="M5.29086 41.2643H22.2592" stroke="#141313" stroke-width="2" stroke-linecap="round"/>
<path fill-rule="evenodd" clip-rule="evenodd" d="M6.80321 14.0602C6.76654 13.6956 6.74777 13.3256 6.74777 12.9513C6.74777 12.5616 6.76812 12.1767 6.80783 11.7975C6.4244 7.13392 3.7161 3.37357 2.31128 2H17.6991H28.1908H38.0487C44.0969 2 49 6.90308 49 12.9513C49 18.9996 44.0969 23.9027 38.0487 23.9027H28.1908H17.6991H2.31128C3.71059 22.5034 6.40318 18.7073 6.80321 14.0602Z" fill="#F37525"/>
<path fill-rule="evenodd" clip-rule="evenodd" d="M33.3686 23.7538H37.8935C43.9858 23.7538 48.9245 18.884 48.9245 12.8769C48.9245 6.86975 43.9858 2 37.8935 2H33.3686C39.4609 2 44.3996 6.86975 44.3996 12.8769C44.3996 18.884 39.4609 23.7538 33.3686 23.7538Z" fill="#ED4323"/>
<mask id="path-13-outside-3_48_4836" maskUnits="userSpaceOnUse" x="0.822723" y="0" width="50" height="26" fill="black">
<rect fill="white" x="0.822723" width="50" height="26"/>
<path fill-rule="evenodd" clip-rule="evenodd" d="M17.1438 2H2.82272C4.37094 3.61505 7.46738 8.0515 7.46738 12.8769C7.46738 17.7023 4.37094 22.1387 2.82272 23.7538H17.1438H19.7564H37.6577C43.75 23.7538 48.6888 18.884 48.6888 12.8769C48.6888 6.86975 43.75 2 37.6577 2H19.7564H17.1438Z"/>
</mask>
<path d="M2.82272 2V0C2.02148 0 1.29757 0.478189 0.983151 1.21516C0.668728 1.95213 0.824484 2.80562 1.37895 3.38403L2.82272 2ZM2.82272 23.7538L1.37895 22.3697C0.824484 22.9481 0.668728 23.8016 0.983151 24.5386C1.29757 25.2756 2.02148 25.7538 2.82272 25.7538V23.7538ZM2.82272 4H17.1438V0H2.82272V4ZM9.46738 12.8769C9.46738 10.0508 8.5663 7.42078 7.51054 5.33228C6.45447 3.24318 5.17878 1.56764 4.26649 0.615974L1.37895 3.38403C2.01489 4.04741 3.06153 5.39762 3.94074 7.13686C4.82024 8.87669 5.46738 10.8776 5.46738 12.8769H9.46738ZM4.26649 25.1378C5.17878 24.1861 6.45447 22.5106 7.51054 20.4215C8.5663 18.333 9.46738 15.703 9.46738 12.8769H5.46738C5.46738 14.8762 4.82024 16.8771 3.94074 18.6169C3.06153 20.3561 2.01489 21.7063 1.37895 22.3697L4.26649 25.1378ZM17.1438 21.7538H2.82272V25.7538H17.1438V21.7538ZM17.1438 25.7538H19.7564V21.7538H17.1438V25.7538ZM19.7564 25.7538H37.6577V21.7538H19.7564V25.7538ZM37.6577 25.7538C44.8279 25.7538 50.6888 20.015 50.6888 12.8769H46.6888C46.6888 17.753 42.672 21.7538 37.6577 21.7538V25.7538ZM50.6888 12.8769C50.6888 5.73873 44.8279 0 37.6577 0V4C42.672 4 46.6888 8.00076 46.6888 12.8769H50.6888ZM37.6577 0H19.7564V4H37.6577V0ZM19.7564 0H17.1438V4H19.7564V0Z" fill="#141313" mask="url(#path-13-outside-3_48_4836)"/>
<path fill-rule="evenodd" clip-rule="evenodd" d="M3.134 23.9027H10.4168H18.0578H18.098C24.1463 23.9027 29.0493 18.9996 29.0493 12.9513C29.0493 6.90308 24.1463 2 18.098 2H18.0578H10.4168H3.134C4.39509 3.37709 6.8293 7.15317 7.1628 11.8333C7.12552 12.2009 7.10643 12.5739 7.10643 12.9513C7.10643 13.3143 7.12409 13.6731 7.15859 14.0271C6.80935 18.6892 4.38992 22.5 3.134 23.9027Z" fill="#FADA80"/>
<mask id="path-16-outside-4_48_4836" maskUnits="userSpaceOnUse" x="1.85663" y="0.197322" width="29" height="26" fill="black">
<rect fill="white" x="1.85663" y="0.197322" width="29" height="26"/>
<path fill-rule="evenodd" clip-rule="evenodd" d="M3.85663 23.508H10.7348H17.6769C23.5617 23.508 28.3322 18.7375 28.3322 12.8527C28.3322 6.96788 23.5617 2.19732 17.6769 2.19732H10.7348H3.85663C5.04848 3.53812 7.34982 7.21631 7.66226 11.7743C7.62662 12.1289 7.60836 12.4887 7.60836 12.8527C7.60836 13.2028 7.62525 13.549 7.65826 13.8905C7.33074 18.4307 5.04354 22.1424 3.85663 23.508Z"/>
</mask>
<path d="M3.85663 23.508L2.34712 22.196C1.8331 22.7874 1.71178 23.6245 2.03674 24.3375C2.36169 25.0505 3.07308 25.508 3.85663 25.508V23.508ZM3.85663 2.19732V0.197322C3.06904 0.197322 2.35478 0.65955 2.03214 1.37802C1.70951 2.0965 1.83857 2.93743 2.36183 3.52607L3.85663 2.19732ZM7.66226 11.7743L9.65223 11.9743C9.66348 11.8624 9.66527 11.7497 9.65757 11.6375L7.66226 11.7743ZM7.65826 13.8905L9.65308 14.0344C9.66116 13.9224 9.65979 13.8099 9.64898 13.6981L7.65826 13.8905ZM10.7348 21.508H3.85663V25.508H10.7348V21.508ZM17.6769 21.508H10.7348V25.508H17.6769V21.508ZM26.3322 12.8527C26.3322 17.6329 22.4571 21.508 17.6769 21.508V25.508C24.6662 25.508 30.3322 19.842 30.3322 12.8527H26.3322ZM17.6769 4.19732C22.4571 4.19732 26.3322 8.07245 26.3322 12.8527H30.3322C30.3322 5.86331 24.6662 0.197322 17.6769 0.197322V4.19732ZM10.7348 4.19732H17.6769V0.197322H10.7348V4.19732ZM3.85663 4.19732H10.7348V0.197322H3.85663V4.19732ZM9.65757 11.6375C9.30859 6.54647 6.77029 2.46474 5.35143 0.868572L2.36183 3.52607C3.32668 4.6115 5.39104 7.88614 5.66694 11.9111L9.65757 11.6375ZM9.60836 12.8527C9.60836 12.5556 9.62326 12.2626 9.65223 11.9743L5.67228 11.5743C5.62997 11.9953 5.60836 12.4218 5.60836 12.8527H9.60836ZM9.64898 13.6981C9.62215 13.4205 9.60836 13.1385 9.60836 12.8527H5.60836C5.60836 13.2672 5.62836 13.6776 5.66754 14.083L9.64898 13.6981ZM5.36614 24.82C6.76956 23.2053 9.28776 19.0985 9.65308 14.0344L5.66345 13.7466C5.37371 17.7629 3.31752 21.0795 2.34712 22.196L5.36614 24.82Z" fill="#141313" mask="url(#path-16-outside-4_48_4836)"/>
<path d="M7.45322 13.2473H24.4216" stroke="#141313" stroke-width="2" stroke-linecap="round"/>
<path d="M5.60214 7.32767H22.5705" stroke="#141313" stroke-width="2" stroke-linecap="round"/>
<path d="M5.60214 19.1669H22.5705" stroke="#141313" stroke-width="2" stroke-linecap="round"/>
</svg>
