<svg width="96" height="91" viewBox="0 0 96 91" fill="none" xmlns="http://www.w3.org/2000/svg">
<path fill-rule="evenodd" clip-rule="evenodd" d="M11.6021 69.1279C11.5315 68.424 11.4954 67.7099 11.4954 66.9874C11.4954 66.2352 11.5346 65.4922 11.611 64.7602C10.8788 55.7277 5.69076 48.444 3 45.7839H32.6989H52.5565H71.2005C82.9109 45.7839 92.404 55.277 92.404 66.9874C92.404 78.6977 82.9109 88.1908 71.2005 88.1908H52.5565H32.6989H3C5.68016 85.481 10.838 78.1283 11.6021 69.1279Z" fill="#F37525"/>
<path fill-rule="evenodd" clip-rule="evenodd" d="M62.4714 87.9026H71.1361C82.8022 87.9026 92.2594 78.474 92.2594 66.8432C92.2594 55.2125 82.8022 45.7839 71.1361 45.7839H62.4714C74.1375 45.7839 83.5947 55.2125 83.5947 66.8432C83.5947 78.474 74.1375 87.9026 62.4714 87.9026Z" fill="#ED4323"/>
<mask id="path-3-outside-1_25_2641" maskUnits="userSpaceOnUse" x="0.97937" y="42.7839" width="94" height="49" fill="black">
<rect fill="white" x="0.97937" y="42.7839" width="94" height="49"/>
<path fill-rule="evenodd" clip-rule="evenodd" d="M31.4026 45.7839H3.97937C6.94405 48.9109 12.8734 57.5005 12.8734 66.8432C12.8734 76.1859 6.94405 84.7756 3.97937 87.9026H31.4026H36.4055H70.6846C82.3507 87.9026 91.808 78.474 91.808 66.8432C91.808 55.2125 82.3507 45.7839 70.6846 45.7839H36.4055H31.4026Z"/>
</mask>
<path d="M3.97937 45.7839V42.7839C2.78051 42.7839 1.69676 43.4976 1.22327 44.599C0.749774 45.7004 0.97746 46.978 1.8023 47.848L3.97937 45.7839ZM3.97937 87.9026L1.8023 85.8385C0.97746 86.7085 0.749774 87.986 1.22327 89.0874C1.69676 90.1888 2.78051 90.9026 3.97937 90.9026L3.97937 87.9026ZM3.97937 48.7839H31.4026V42.7839H3.97937V48.7839ZM15.8734 66.8432C15.8734 61.5587 14.2048 56.608 12.2215 52.6411C10.238 48.6738 7.84471 45.5005 6.15644 43.7198L1.8023 47.848C3.0787 49.1942 5.13248 51.8793 6.85482 55.3242C8.57735 58.7696 9.8734 62.7851 9.8734 66.8432H15.8734ZM6.15644 89.9666C7.84471 88.1859 10.238 85.0127 12.2215 81.0453C14.2048 77.0784 15.8734 72.1277 15.8734 66.8432H9.8734C9.8734 70.9014 8.57735 74.9169 6.85482 78.3622C5.13248 81.8071 3.0787 84.4922 1.8023 85.8385L6.15644 89.9666ZM31.4026 84.9026H3.97937V90.9026H31.4026V84.9026ZM31.4026 90.9026H36.4055V84.9026H31.4026V90.9026ZM36.4055 90.9026H70.6846V84.9026H36.4055V90.9026ZM70.6846 90.9026C83.999 90.9026 94.808 80.1394 94.808 66.8432H88.808C88.808 76.8085 80.7025 84.9026 70.6846 84.9026V90.9026ZM94.808 66.8432C94.808 53.5471 83.999 42.7839 70.6846 42.7839V48.7839C80.7025 48.7839 88.808 56.8779 88.808 66.8432H94.808ZM70.6846 42.7839H36.4055V48.7839H70.6846V42.7839ZM36.4055 42.7839H31.4026V48.7839H36.4055V42.7839Z" fill="#141313" mask="url(#path-3-outside-1_25_2641)"/>
<path fill-rule="evenodd" clip-rule="evenodd" d="M4.57541 88.1908H18.5211H32.9971C44.7074 88.1908 54.2005 78.6977 54.2005 66.9874C54.2005 55.277 44.7074 45.7839 32.997 45.7839H18.5211H4.57541C6.99089 48.4508 11.6539 55.765 12.2906 64.8296C12.2189 65.5391 12.1822 66.259 12.1822 66.9874C12.1822 67.6879 12.2162 68.3805 12.2825 69.0637C11.6155 78.0933 6.98093 85.4745 4.57541 88.1908Z" fill="#FADA80"/>
<mask id="path-6-outside-2_25_2641" maskUnits="userSpaceOnUse" x="2.95914" y="43.1659" width="53" height="48" fill="black">
<rect fill="white" x="2.95914" y="43.1659" width="53" height="48"/>
<path fill-rule="evenodd" clip-rule="evenodd" d="M5.95914 87.4268H19.1301H32.1969C43.5907 87.4268 52.8273 78.1902 52.8273 66.7964C52.8273 55.4025 43.5907 46.1659 32.1969 46.1659H19.1301H5.95914C8.242 48.7626 12.6505 55.8872 13.247 64.7153C13.1784 65.3997 13.1433 66.0939 13.1433 66.7964C13.1433 67.4722 13.1758 68.1404 13.2393 68.7995C12.6138 77.5928 8.23249 84.7821 5.95914 87.4268Z"/>
</mask>
<path d="M5.95914 87.4268L3.68415 85.4711C2.91992 86.3602 2.74359 87.6129 3.23271 88.6784C3.72183 89.7438 4.78677 90.4268 5.95914 90.4268V87.4268ZM5.95914 46.1659V43.1659C4.78073 43.1659 3.71146 43.8558 3.22578 44.9295C2.74011 46.0032 2.92799 47.2617 3.70605 48.1468L5.95914 46.1659ZM13.247 64.7153L16.232 65.0143C16.2487 64.8477 16.2514 64.6801 16.2401 64.513L13.247 64.7153ZM13.2393 68.7995L16.2318 69.0124C16.2436 68.8456 16.2415 68.6782 16.2255 68.5118L13.2393 68.7995ZM19.1301 84.4268H5.95914V90.4268H19.1301V84.4268ZM32.1969 84.4268H19.1301V90.4268H32.1969V84.4268ZM49.8273 66.7964C49.8273 76.5334 41.9339 84.4268 32.1969 84.4268V90.4268C45.2476 90.4268 55.8273 79.8471 55.8273 66.7964H49.8273ZM32.1969 49.1659C41.9339 49.1659 49.8273 57.0593 49.8273 66.7964H55.8273C55.8273 53.7456 45.2476 43.1659 32.1969 43.1659V49.1659ZM19.1301 49.1659H32.1969V43.1659H19.1301V49.1659ZM5.95914 49.1659H19.1301V43.1659H5.95914V49.1659ZM16.2401 64.513C15.5902 54.8939 10.8336 47.1669 8.21222 44.1851L3.70605 48.1468C5.65038 50.3583 9.71076 56.8804 10.2538 64.9175L16.2401 64.513ZM16.1433 66.7964C16.1433 66.1939 16.1734 65.5995 16.232 65.0143L10.2619 64.4163C10.1834 65.1998 10.1433 65.9939 10.1433 66.7964H16.1433ZM16.2255 68.5118C16.1712 67.9481 16.1433 67.3759 16.1433 66.7964H10.1433C10.1433 67.5684 10.1804 68.3326 10.2531 69.0872L16.2255 68.5118ZM8.23412 89.3824C10.8303 86.3623 15.5509 78.5831 16.2318 69.0124L10.2469 68.5866C9.67665 76.6025 5.63472 83.202 3.68415 85.4711L8.23412 89.3824Z" fill="#141313" mask="url(#path-6-outside-2_25_2641)"/>
<path d="M12.8463 67.5604H45.3389" stroke="#141313" stroke-width="3" stroke-linecap="round"/>
<path d="M9.30161 56.0991H41.7942" stroke="#141313" stroke-width="3" stroke-linecap="round"/>
<path d="M9.30161 79.0218H41.7942" stroke="#141313" stroke-width="3" stroke-linecap="round"/>
<path fill-rule="evenodd" clip-rule="evenodd" d="M12.1982 26.344C12.1276 25.6401 12.0914 24.926 12.0914 24.2035C12.0914 23.4513 12.1306 22.7083 12.207 21.9763C11.4749 12.9438 6.2868 5.66013 3.59604 3H33.2949H53.1525H71.7966C83.5069 3 93 12.4931 93 24.2035C93 35.9138 83.5069 45.4069 71.7965 45.4069H53.1525H33.2949H3.59604C6.2762 42.6971 11.434 35.3444 12.1982 26.344Z" fill="#F37525"/>
<path fill-rule="evenodd" clip-rule="evenodd" d="M63.0674 45.1187H71.7321C83.3982 45.1187 92.8555 35.6901 92.8555 24.0593C92.8555 12.4286 83.3982 3 71.7321 3H63.0674C74.7335 3 84.1908 12.4286 84.1908 24.0593C84.1908 35.6901 74.7335 45.1187 63.0674 45.1187Z" fill="#ED4323"/>
<mask id="path-13-outside-3_25_2641" maskUnits="userSpaceOnUse" x="1.57541" y="0" width="94" height="49" fill="black">
<rect fill="white" x="1.57541" width="94" height="49"/>
<path fill-rule="evenodd" clip-rule="evenodd" d="M31.9987 3H4.57541C7.54009 6.12699 13.4694 14.7166 13.4694 24.0593C13.4694 33.402 7.54009 41.9917 4.57541 45.1187H31.9987H37.0016H71.2807C82.9468 45.1187 92.404 35.6901 92.404 24.0593C92.404 12.4286 82.9468 3 71.2806 3H37.0016H31.9987Z"/>
</mask>
<path d="M4.57541 3V0C3.37655 0 2.2928 0.713746 1.81931 1.81514C1.34581 2.91653 1.5735 4.19407 2.39834 5.06406L4.57541 3ZM4.57541 45.1187L2.39834 43.0546C1.5735 43.9246 1.34581 45.2021 1.81931 46.3035C2.2928 47.4049 3.37655 48.1187 4.57541 48.1187V45.1187ZM4.57541 6H31.9987V0H4.57541V6ZM16.4694 24.0593C16.4694 18.7748 14.8008 13.8241 12.8175 9.85722C10.834 5.8899 8.44075 2.71664 6.75248 0.935935L2.39834 5.06406C3.67474 6.41035 5.72852 9.09541 7.45086 12.5403C9.17339 15.9857 10.4694 20.0012 10.4694 24.0593H16.4694ZM6.75248 47.1827C8.44075 45.402 10.834 42.2288 12.8175 38.2614C14.8008 34.2945 16.4694 29.3438 16.4694 24.0593H10.4694C10.4694 28.1175 9.17339 32.133 7.45086 35.5783C5.72852 39.0232 3.67474 41.7083 2.39834 43.0546L6.75248 47.1827ZM31.9987 42.1187H4.57541V48.1187H31.9987V42.1187ZM31.9987 48.1187H37.0016V42.1187H31.9987V48.1187ZM37.0016 48.1187H71.2807V42.1187H37.0016V48.1187ZM71.2807 48.1187C84.595 48.1187 95.404 37.3555 95.404 24.0593H89.404C89.404 34.0246 81.2985 42.1187 71.2807 42.1187V48.1187ZM95.404 24.0593C95.404 10.7632 84.595 0 71.2806 0V6C81.2985 6 89.404 14.094 89.404 24.0593H95.404ZM71.2806 0H37.0016V6H71.2806V0ZM37.0016 0H31.9987V6H37.0016V0Z" fill="#141313" mask="url(#path-13-outside-3_25_2641)"/>
<path fill-rule="evenodd" clip-rule="evenodd" d="M5.17145 45.4069H19.1172H33.5931C45.3035 45.4069 54.7966 35.9138 54.7966 24.2035C54.7966 12.4931 45.3034 3 33.5931 3H19.1172H5.17145C7.58692 5.66694 12.2499 12.9811 12.8867 22.0457C12.8149 22.7552 12.7782 23.4751 12.7782 24.2035C12.7782 24.904 12.8122 25.5966 12.8786 26.2798C12.2116 35.3094 7.57697 42.6906 5.17145 45.4069Z" fill="#FADA80"/>
<mask id="path-16-outside-4_25_2641" maskUnits="userSpaceOnUse" x="3.55518" y="0.382046" width="53" height="48" fill="black">
<rect fill="white" x="3.55518" y="0.382046" width="53" height="48"/>
<path fill-rule="evenodd" clip-rule="evenodd" d="M6.55518 44.6429H19.7262H32.7929C44.1868 44.6429 53.4233 35.4063 53.4233 24.0125C53.4233 12.6186 44.1868 3.38205 32.7929 3.38205H19.7262H6.55518C8.83804 5.97871 13.2465 13.1033 13.843 21.9314C13.7745 22.6158 13.7393 23.31 13.7393 24.0125C13.7393 24.6883 13.7718 25.3565 13.8354 26.0156C13.2098 34.8089 8.82853 41.9982 6.55518 44.6429Z"/>
</mask>
<path d="M6.55518 44.6429L4.28019 42.6872C3.51596 43.5763 3.33962 44.829 3.82874 45.8945C4.31787 46.9599 5.38281 47.6429 6.55518 47.6429V44.6429ZM6.55518 3.38205V0.382046C5.37677 0.382046 4.3075 1.07194 3.82182 2.14561C3.33615 3.21927 3.52402 4.47784 4.30209 5.36286L6.55518 3.38205ZM13.843 21.9314L16.8281 22.2304C16.8448 22.0638 16.8475 21.8962 16.8362 21.7291L13.843 21.9314ZM13.8354 26.0156L16.8278 26.2285C16.8397 26.0617 16.8376 25.8943 16.8215 25.7279L13.8354 26.0156ZM19.7262 41.6429H6.55518V47.6429H19.7262V41.6429ZM32.7929 41.6429H19.7262V47.6429H32.7929V41.6429ZM50.4233 24.0125C50.4233 33.7495 42.5299 41.6429 32.7929 41.6429V47.6429C45.8436 47.6429 56.4233 37.0632 56.4233 24.0125H50.4233ZM32.7929 6.38205C42.5299 6.38205 50.4233 14.2754 50.4233 24.0125H56.4233C56.4233 10.9617 45.8436 0.382046 32.7929 0.382046V6.38205ZM19.7262 6.38205H32.7929V0.382046H19.7262V6.38205ZM6.55518 6.38205H19.7262V0.382046H6.55518V6.38205ZM16.8362 21.7291C16.1863 12.1101 11.4297 4.38297 8.80826 1.40124L4.30209 5.36286C6.24642 7.57444 10.3068 14.0965 10.8498 22.1336L16.8362 21.7291ZM16.7393 24.0125C16.7393 23.41 16.7695 22.8156 16.8281 22.2304L10.8579 21.6324C10.7795 22.4159 10.7393 23.21 10.7393 24.0125H16.7393ZM16.8215 25.7279C16.7672 25.1642 16.7393 24.592 16.7393 24.0125H10.7393C10.7393 24.7845 10.7765 25.5487 10.8492 26.3033L16.8215 25.7279ZM8.83016 46.5985C11.4263 43.5784 16.147 35.7992 16.8278 26.2285L10.8429 25.8027C10.2727 33.8186 6.23076 40.4181 4.28019 42.6872L8.83016 46.5985Z" fill="#141313" mask="url(#path-16-outside-4_25_2641)"/>
<path d="M13.4423 24.7765H45.9349" stroke="#141313" stroke-width="3" stroke-linecap="round"/>
<path d="M9.89764 13.3152H42.3903" stroke="#141313" stroke-width="3" stroke-linecap="round"/>
<path d="M9.89764 36.2379H42.3903" stroke="#141313" stroke-width="3" stroke-linecap="round"/>
</svg>
