<svg width="324" height="75" viewBox="0 0 324 75" fill="none" xmlns="http://www.w3.org/2000/svg">
<path d="M4.15 55V20H21.25C25.65 20 28.95 20.8333 31.15 22.5C33.3833 24.1667 34.5 26.3667 34.5 29.1C34.5 30.9333 34.05 32.5333 33.15 33.9C32.25 35.2333 31.0167 36.2667 29.45 37C27.8833 37.7333 26.0833 38.1 24.05 38.1L25 36.05C27.2 36.05 29.15 36.4167 30.85 37.15C32.55 37.85 33.8667 38.9 34.8 40.3C35.7667 41.7 36.25 43.4167 36.25 45.45C36.25 48.45 35.0667 50.8 32.7 52.5C30.3333 54.1667 26.85 55 22.25 55H4.15ZM12.2 48.9H21.65C23.75 48.9 25.3333 48.5667 26.4 47.9C27.5 47.2 28.05 46.1 28.05 44.6C28.05 43.1333 27.5 42.05 26.4 41.35C25.3333 40.6167 23.75 40.25 21.65 40.25H11.6V34.35H20.25C22.2167 34.35 23.7167 34.0167 24.75 33.35C25.8167 32.65 26.35 31.6 26.35 30.2C26.35 28.8333 25.8167 27.8167 24.75 27.15C23.7167 26.45 22.2167 26.1 20.25 26.1H12.2V48.9ZM66.8926 55.4C64.5259 55.4 62.4926 54.9 60.7926 53.9C59.0926 52.9 57.7926 51.3833 56.8926 49.35C55.9926 47.2833 55.5426 44.6833 55.5426 41.55C55.5426 38.3833 56.0092 35.7833 56.9426 33.75C57.9092 31.7167 59.2426 30.2 60.9426 29.2C62.6426 28.2 64.6259 27.7 66.8926 27.7C69.4259 27.7 71.6926 28.2667 73.6926 29.4C75.7259 30.5333 77.3259 32.1333 78.4926 34.2C79.6926 36.2667 80.2926 38.7167 80.2926 41.55C80.2926 44.35 79.6926 46.7833 78.4926 48.85C77.3259 50.9167 75.7259 52.5333 73.6926 53.7C71.6926 54.8333 69.4259 55.4 66.8926 55.4ZM50.9926 55V17.9H58.7926V33.55L58.2926 41.5L58.4426 49.5V55H50.9926ZM65.5426 49C66.8426 49 67.9926 48.7 68.9926 48.1C70.0259 47.5 70.8426 46.65 71.4426 45.55C72.0759 44.4167 72.3926 43.0833 72.3926 41.55C72.3926 39.9833 72.0759 38.65 71.4426 37.55C70.8426 36.45 70.0259 35.6 68.9926 35C67.9926 34.4 66.8426 34.1 65.5426 34.1C64.2426 34.1 63.0759 34.4 62.0426 35C61.0092 35.6 60.1926 36.45 59.5926 37.55C58.9926 38.65 58.6926 39.9833 58.6926 41.55C58.6926 43.0833 58.9926 44.4167 59.5926 45.55C60.1926 46.65 61.0092 47.5 62.0426 48.1C63.0759 48.7 64.2426 49 65.5426 49ZM83.0141 55V17.9H90.8141V55H83.0141ZM108.903 55.4C105.836 55.4 103.136 54.8 100.803 53.6C98.5031 52.4 96.7198 50.7667 95.4531 48.7C94.1865 46.6 93.5531 44.2167 93.5531 41.55C93.5531 38.85 94.1698 36.4667 95.4031 34.4C96.6698 32.3 98.3865 30.6667 100.553 29.5C102.72 28.3 105.17 27.7 107.903 27.7C110.536 27.7 112.903 28.2667 115.003 29.4C117.136 30.5 118.82 32.1 120.053 34.2C121.286 36.2667 121.903 38.75 121.903 41.65C121.903 41.95 121.886 42.3 121.853 42.7C121.82 43.0667 121.786 43.4167 121.753 43.75H99.9031V39.2H117.653L114.653 40.55C114.653 39.15 114.37 37.9333 113.803 36.9C113.236 35.8667 112.453 35.0667 111.453 34.5C110.453 33.9 109.286 33.6 107.953 33.6C106.62 33.6 105.436 33.9 104.403 34.5C103.403 35.0667 102.62 35.8833 102.053 36.95C101.486 37.9833 101.203 39.2167 101.203 40.65V41.85C101.203 43.3167 101.52 44.6167 102.153 45.75C102.82 46.85 103.736 47.7 104.903 48.3C106.103 48.8667 107.503 49.15 109.103 49.15C110.536 49.15 111.786 48.9333 112.853 48.5C113.953 48.0667 114.953 47.4167 115.853 46.55L120.003 51.05C118.77 52.45 117.22 53.5333 115.353 54.3C113.486 55.0333 111.336 55.4 108.903 55.4Z" fill="#1F1F1F"/>
<rect x="39.3171" y="29.9756" width="7.41463" height="25.0244" fill="#1F1F1F"/>
<path fill-rule="evenodd" clip-rule="evenodd" d="M37 22.678C37.037 22.6772 37.0742 22.6768 37.1114 22.6768C40.1813 22.6768 42.6712 25.2598 42.6812 28.4501C42.6913 25.2598 45.1812 22.6768 48.2511 22.6768C48.3633 22.6768 48.4748 22.6803 48.5853 22.6871V22.6666C48.4748 22.6734 48.3633 22.6768 48.2511 22.6768C45.2122 22.6768 42.7416 20.1457 42.6823 17H42.6802C42.6208 20.1457 40.1503 22.6768 37.1114 22.6768C37.0742 22.6768 37.037 22.6764 37 22.6757V22.678ZM42.6812 28.489C42.6811 28.5212 42.6808 28.5533 42.6802 28.5853H42.6823C42.6817 28.5533 42.6814 28.5212 42.6812 28.489Z" fill="#1F1F1F"/>
<path d="M165.15 55V20H182.25C186.65 20 189.95 20.8333 192.15 22.5C194.383 24.1667 195.5 26.3667 195.5 29.1C195.5 30.9333 195.05 32.5333 194.15 33.9C193.25 35.2333 192.017 36.2667 190.45 37C188.883 37.7333 187.083 38.1 185.05 38.1L186 36.05C188.2 36.05 190.15 36.4167 191.85 37.15C193.55 37.85 194.867 38.9 195.8 40.3C196.767 41.7 197.25 43.4167 197.25 45.45C197.25 48.45 196.067 50.8 193.7 52.5C191.333 54.1667 187.85 55 183.25 55H165.15ZM173.2 48.9H182.65C184.75 48.9 186.333 48.5667 187.4 47.9C188.5 47.2 189.05 46.1 189.05 44.6C189.05 43.1333 188.5 42.05 187.4 41.35C186.333 40.6167 184.75 40.25 182.65 40.25H172.6V34.35H181.25C183.217 34.35 184.717 34.0167 185.75 33.35C186.817 32.65 187.35 31.6 187.35 30.2C187.35 28.8333 186.817 27.8167 185.75 27.15C184.717 26.45 183.217 26.1 181.25 26.1H173.2V48.9ZM200.332 55V28.1H207.782V35.7L206.732 33.5C207.532 31.6 208.816 30.1667 210.582 29.2C212.349 28.2 214.499 27.7 217.032 27.7V34.9C216.699 34.8667 216.399 34.85 216.132 34.85C215.866 34.8167 215.582 34.8 215.282 34.8C213.149 34.8 211.416 35.4167 210.082 36.65C208.782 37.85 208.132 39.7333 208.132 42.3V55H200.332ZM242.576 55.4C240.042 55.4 237.759 54.8333 235.726 53.7C233.692 52.5333 232.076 50.9167 230.876 48.85C229.709 46.7833 229.126 44.35 229.126 41.55C229.126 38.7167 229.709 36.2667 230.876 34.2C232.076 32.1333 233.692 30.5333 235.726 29.4C237.759 28.2667 240.042 27.7 242.576 27.7C244.842 27.7 246.826 28.2 248.526 29.2C250.226 30.2 251.542 31.7167 252.476 33.75C253.409 35.7833 253.876 38.3833 253.876 41.55C253.876 44.6833 253.426 47.2833 252.526 49.35C251.626 51.3833 250.326 52.9 248.626 53.9C246.959 54.9 244.942 55.4 242.576 55.4ZM243.926 49C245.192 49 246.342 48.7 247.376 48.1C248.409 47.5 249.226 46.65 249.826 45.55C250.459 44.4167 250.776 43.0833 250.776 41.55C250.776 39.9833 250.459 38.65 249.826 37.55C249.226 36.45 248.409 35.6 247.376 35C246.342 34.4 245.192 34.1 243.926 34.1C242.626 34.1 241.459 34.4 240.426 35C239.392 35.6 238.559 36.45 237.926 37.55C237.326 38.65 237.026 39.9833 237.026 41.55C237.026 43.0833 237.326 44.4167 237.926 45.55C238.559 46.65 239.392 47.5 240.426 48.1C241.459 48.7 242.626 49 243.926 49ZM250.976 55V49.5L251.126 41.5L250.626 33.55V17.9H258.426V55H250.976ZM275.795 65.1C273.262 65.1 270.812 64.7833 268.445 64.15C266.112 63.55 264.162 62.6333 262.595 61.4L265.695 55.8C266.828 56.7333 268.262 57.4667 269.995 58C271.762 58.5667 273.495 58.85 275.195 58.85C277.962 58.85 279.962 58.2333 281.195 57C282.462 55.7667 283.095 53.9333 283.095 51.5V47.45L283.595 40.7L283.495 33.9V28.1H290.895V50.5C290.895 55.5 289.595 59.1833 286.995 61.55C284.395 63.9167 280.662 65.1 275.795 65.1ZM274.595 53.7C272.095 53.7 269.828 53.1667 267.795 52.1C265.795 51 264.178 49.4833 262.945 47.55C261.745 45.5833 261.145 43.3 261.145 40.7C261.145 38.0667 261.745 35.7833 262.945 33.85C264.178 31.8833 265.795 30.3667 267.795 29.3C269.828 28.2333 272.095 27.7 274.595 27.7C276.862 27.7 278.862 28.1667 280.595 29.1C282.328 30 283.678 31.4167 284.645 33.35C285.612 35.25 286.095 37.7 286.095 40.7C286.095 43.6667 285.612 46.1167 284.645 48.05C283.678 49.95 282.328 51.3667 280.595 52.3C278.862 53.2333 276.862 53.7 274.595 53.7ZM276.145 47.3C277.512 47.3 278.728 47.0333 279.795 46.5C280.862 45.9333 281.695 45.15 282.295 44.15C282.895 43.15 283.195 42 283.195 40.7C283.195 39.3667 282.895 38.2167 282.295 37.25C281.695 36.25 280.862 35.4833 279.795 34.95C278.728 34.3833 277.512 34.1 276.145 34.1C274.778 34.1 273.562 34.3833 272.495 34.95C271.428 35.4833 270.578 36.25 269.945 37.25C269.345 38.2167 269.045 39.3667 269.045 40.7C269.045 42 269.345 43.15 269.945 44.15C270.578 45.15 271.428 45.9333 272.495 46.5C273.562 47.0333 274.778 47.3 276.145 47.3ZM309.005 55.4C305.938 55.4 303.238 54.8 300.905 53.6C298.605 52.4 296.821 50.7667 295.555 48.7C294.288 46.6 293.655 44.2167 293.655 41.55C293.655 38.85 294.271 36.4667 295.505 34.4C296.771 32.3 298.488 30.6667 300.655 29.5C302.821 28.3 305.271 27.7 308.005 27.7C310.638 27.7 313.005 28.2667 315.105 29.4C317.238 30.5 318.921 32.1 320.155 34.2C321.388 36.2667 322.005 38.75 322.005 41.65C322.005 41.95 321.988 42.3 321.955 42.7C321.921 43.0667 321.888 43.4167 321.855 43.75H300.005V39.2H317.755L314.755 40.55C314.755 39.15 314.471 37.9333 313.905 36.9C313.338 35.8667 312.555 35.0667 311.555 34.5C310.555 33.9 309.388 33.6 308.055 33.6C306.721 33.6 305.538 33.9 304.505 34.5C303.505 35.0667 302.721 35.8833 302.155 36.95C301.588 37.9833 301.305 39.2167 301.305 40.65V41.85C301.305 43.3167 301.621 44.6167 302.255 45.75C302.921 46.85 303.838 47.7 305.005 48.3C306.205 48.8667 307.605 49.15 309.205 49.15C310.638 49.15 311.888 48.9333 312.955 48.5C314.055 48.0667 315.055 47.4167 315.955 46.55L320.105 51.05C318.871 52.45 317.321 53.5333 315.455 54.3C313.588 55.0333 311.438 55.4 309.005 55.4Z" fill="#1F1F1F"/>
<rect x="219.317" y="29.9756" width="7.41463" height="25.0244" fill="#1F1F1F"/>
<path fill-rule="evenodd" clip-rule="evenodd" d="M217 22.678C217.037 22.6772 217.074 22.6768 217.111 22.6768C220.181 22.6768 222.671 25.2598 222.681 28.4501C222.691 25.2598 225.181 22.6768 228.251 22.6768C228.363 22.6768 228.475 22.6803 228.585 22.6871V22.6666C228.475 22.6734 228.363 22.6768 228.251 22.6768C225.212 22.6768 222.742 20.1457 222.682 17H222.68C222.621 20.1457 220.15 22.6768 217.111 22.6768C217.074 22.6768 217.037 22.6764 217 22.6757V22.678ZM222.681 28.489C222.681 28.5212 222.681 28.5533 222.68 28.5853H222.682C222.682 28.5533 222.681 28.5212 222.681 28.489Z" fill="#1F1F1F"/>
<rect x="129" y="30.125" width="27" height="6.75" fill="#1F1F1F"/>
<rect x="145.875" y="20" width="36.5625" height="6.75" transform="rotate(90 145.875 20)" fill="#1F1F1F"/>

</svg>
