<svg width="706" height="150" viewBox="0 0 706 150" fill="none" xmlns="http://www.w3.org/2000/svg">
<path d="M8.3 111V41H42.5C51.3 41 57.9 42.6667 62.3 46C66.7667 49.3333 69 53.7333 69 59.2C69 62.8667 68.1 66.0667 66.3 68.8C64.5 71.4667 62.0333 73.5333 58.9 75C55.7667 76.4667 52.1667 77.2 48.1 77.2L50 73.1C54.4 73.1 58.3 73.8333 61.7 75.3C65.1 76.7 67.7333 78.8 69.6 81.6C71.5333 84.4 72.5 87.8333 72.5 91.9C72.5 97.9 70.1333 102.6 65.4 106C60.6667 109.333 53.7 111 44.5 111H8.3ZM24.4 98.8H43.3C47.5 98.8 50.6667 98.1333 52.8 96.8C55 95.4 56.1 93.2 56.1 90.2C56.1 87.2667 55 85.1 52.8 83.7C50.6667 82.2333 47.5 81.5 43.3 81.5H23.2V69.7H40.5C44.4333 69.7 47.4333 69.0333 49.5 67.7C51.6333 66.3 52.7 64.2 52.7 61.4C52.7 58.6667 51.6333 56.6333 49.5 55.3C47.4333 53.9 44.4333 53.2 40.5 53.2H24.4V98.8ZM143.785 111.8C139.052 111.8 134.985 110.8 131.585 108.8C128.185 106.8 125.585 103.767 123.785 99.7C121.985 95.5667 121.085 90.3667 121.085 84.1C121.085 77.7667 122.018 72.5667 123.885 68.5C125.818 64.4333 128.485 61.4 131.885 59.4C135.285 57.4 139.252 56.4 143.785 56.4C148.852 56.4 153.385 57.5333 157.385 59.8C161.452 62.0667 164.652 65.2667 166.985 69.4C169.385 73.5333 170.585 78.4333 170.585 84.1C170.585 89.7 169.385 94.5667 166.985 98.7C164.652 102.833 161.452 106.067 157.385 108.4C153.385 110.667 148.852 111.8 143.785 111.8ZM111.985 111V36.8H127.585V68.1L126.585 84L126.885 100V111H111.985ZM141.085 99C143.685 99 145.985 98.4 147.985 97.2C150.052 96 151.685 94.3 152.885 92.1C154.152 89.8333 154.785 87.1667 154.785 84.1C154.785 80.9667 154.152 78.3 152.885 76.1C151.685 73.9 150.052 72.2 147.985 71C145.985 69.8 143.685 69.2 141.085 69.2C138.485 69.2 136.152 69.8 134.085 71C132.018 72.2 130.385 73.9 129.185 76.1C127.985 78.3 127.385 80.9667 127.385 84.1C127.385 87.1667 127.985 89.8333 129.185 92.1C130.385 94.3 132.018 96 134.085 97.2C136.152 98.4 138.485 99 141.085 99ZM181.028 111V36.8H196.628V111H181.028ZM237.806 111.8C231.673 111.8 226.273 110.6 221.606 108.2C217.006 105.8 213.44 102.533 210.906 98.4C208.373 94.2 207.106 89.4333 207.106 84.1C207.106 78.7 208.34 73.9333 210.806 69.8C213.34 65.6 216.773 62.3333 221.106 60C225.44 57.6 230.34 56.4 235.806 56.4C241.073 56.4 245.806 57.5333 250.006 59.8C254.273 62 257.64 65.2 260.106 69.4C262.573 73.5333 263.806 78.5 263.806 84.3C263.806 84.9 263.773 85.6 263.706 86.4C263.64 87.1333 263.573 87.8333 263.506 88.5H219.806V79.4H255.306L249.306 82.1C249.306 79.3 248.74 76.8667 247.606 74.8C246.473 72.7333 244.906 71.1333 242.906 70C240.906 68.8 238.573 68.2 235.906 68.2C233.24 68.2 230.873 68.8 228.806 70C226.806 71.1333 225.24 72.7667 224.106 74.9C222.973 76.9667 222.406 79.4333 222.406 82.3V84.7C222.406 87.6333 223.04 90.2333 224.306 92.5C225.64 94.7 227.473 96.4 229.806 97.6C232.206 98.7333 235.006 99.3 238.206 99.3C241.073 99.3 243.573 98.8667 245.706 98C247.906 97.1333 249.906 95.8333 251.706 94.1L260.006 103.1C257.54 105.9 254.44 108.067 250.706 109.6C246.973 111.067 242.673 111.8 237.806 111.8Z" fill="#1F1F1F"/>
<rect x="83" y="57" width="16" height="54" fill="#1F1F1F"/>
<path fill-rule="evenodd" clip-rule="evenodd" d="M78 41.2526C78.0799 41.2509 78.1601 41.2501 78.2404 41.2501C84.865 41.2501 90.2378 46.8239 90.2596 53.7082C90.2813 46.8239 95.6541 41.2501 102.279 41.2501C102.521 41.2501 102.761 41.2576 103 41.2723V41.2279C102.761 41.2426 102.521 41.2501 102.279 41.2501C95.721 41.2501 90.3899 35.7882 90.2618 29H90.2573C90.1292 35.7882 84.7981 41.2501 78.2404 41.2501C78.1601 41.2501 78.0799 41.2492 78 41.2476V41.2526ZM90.2596 53.7921C90.2593 53.8615 90.2586 53.9308 90.2573 54H90.2618C90.2605 53.9308 90.2598 53.8615 90.2596 53.7921Z" fill="#1F1F1F"/>
<path d="M363.3 111V41H397.5C406.3 41 412.9 42.6667 417.3 46C421.767 49.3333 424 53.7333 424 59.2C424 62.8667 423.1 66.0667 421.3 68.8C419.5 71.4667 417.033 73.5333 413.9 75C410.767 76.4667 407.167 77.2 403.1 77.2L405 73.1C409.4 73.1 413.3 73.8333 416.7 75.3C420.1 76.7 422.733 78.8 424.6 81.6C426.533 84.4 427.5 87.8333 427.5 91.9C427.5 97.9 425.133 102.6 420.4 106C415.667 109.333 408.7 111 399.5 111H363.3ZM379.4 98.8H398.3C402.5 98.8 405.667 98.1333 407.8 96.8C410 95.4 411.1 93.2 411.1 90.2C411.1 87.2667 410 85.1 407.8 83.7C405.667 82.2333 402.5 81.5 398.3 81.5H378.2V69.7H395.5C399.433 69.7 402.433 69.0333 404.5 67.7C406.633 66.3 407.7 64.2 407.7 61.4C407.7 58.6667 406.633 56.6333 404.5 55.3C402.433 53.9 399.433 53.2 395.5 53.2H379.4V98.8ZM438.665 111V57.2H453.565V72.4L451.465 68C453.065 64.2 455.632 61.3333 459.165 59.4C462.698 57.4 466.998 56.4 472.065 56.4V70.8C471.398 70.7333 470.798 70.7 470.265 70.7C469.732 70.6333 469.165 70.6 468.565 70.6C464.298 70.6 460.832 71.8333 458.165 74.3C455.565 76.7 454.265 80.4667 454.265 85.6V111H438.665ZM533.152 111.8C528.085 111.8 523.518 110.667 519.452 108.4C515.385 106.067 512.152 102.833 509.752 98.7C507.418 94.5667 506.252 89.7 506.252 84.1C506.252 78.4333 507.418 73.5333 509.752 69.4C512.152 65.2667 515.385 62.0667 519.452 59.8C523.518 57.5333 528.085 56.4 533.152 56.4C537.685 56.4 541.652 57.4 545.052 59.4C548.452 61.4 551.085 64.4333 552.952 68.5C554.818 72.5667 555.752 77.7667 555.752 84.1C555.752 90.3667 554.852 95.5667 553.052 99.7C551.252 103.767 548.652 106.8 545.252 108.8C541.918 110.8 537.885 111.8 533.152 111.8ZM535.852 99C538.385 99 540.685 98.4 542.752 97.2C544.818 96 546.452 94.3 547.652 92.1C548.918 89.8333 549.552 87.1667 549.552 84.1C549.552 80.9667 548.918 78.3 547.652 76.1C546.452 73.9 544.818 72.2 542.752 71C540.685 69.8 538.385 69.2 535.852 69.2C533.252 69.2 530.918 69.8 528.852 71C526.785 72.2 525.118 73.9 523.852 76.1C522.652 78.3 522.052 80.9667 522.052 84.1C522.052 87.1667 522.652 89.8333 523.852 92.1C525.118 94.3 526.785 96 528.852 97.2C530.918 98.4 533.252 99 535.852 99ZM549.952 111V100L550.252 84L549.252 68.1V36.8H564.852V111H549.952ZM604.59 131.2C599.523 131.2 594.623 130.567 589.89 129.3C585.223 128.1 581.323 126.267 578.19 123.8L584.39 112.6C586.657 114.467 589.523 115.933 592.99 117C596.523 118.133 599.99 118.7 603.39 118.7C608.923 118.7 612.923 117.467 615.39 115C617.923 112.533 619.19 108.867 619.19 104V95.9L620.19 82.4L619.99 68.8V57.2H634.79V102C634.79 112 632.19 119.367 626.99 124.1C621.79 128.833 614.323 131.2 604.59 131.2ZM602.19 108.4C597.19 108.4 592.657 107.333 588.59 105.2C584.59 103 581.357 99.9667 578.89 96.1C576.49 92.1667 575.29 87.6 575.29 82.4C575.29 77.1333 576.49 72.5667 578.89 68.7C581.357 64.7667 584.59 61.7333 588.59 59.6C592.657 57.4667 597.19 56.4 602.19 56.4C606.723 56.4 610.723 57.3333 614.19 59.2C617.657 61 620.357 63.8333 622.29 67.7C624.223 71.5 625.19 76.4 625.19 82.4C625.19 88.3333 624.223 93.2333 622.29 97.1C620.357 100.9 617.657 103.733 614.19 105.6C610.723 107.467 606.723 108.4 602.19 108.4ZM605.29 95.6C608.023 95.6 610.457 95.0667 612.59 94C614.723 92.8667 616.39 91.3 617.59 89.3C618.79 87.3 619.39 85 619.39 82.4C619.39 79.7333 618.79 77.4333 617.59 75.5C616.39 73.5 614.723 71.9667 612.59 70.9C610.457 69.7667 608.023 69.2 605.29 69.2C602.557 69.2 600.123 69.7667 597.99 70.9C595.857 71.9667 594.157 73.5 592.89 75.5C591.69 77.4333 591.09 79.7333 591.09 82.4C591.09 85 591.69 87.3 592.89 89.3C594.157 91.3 595.857 92.8667 597.99 94C600.123 95.0667 602.557 95.6 605.29 95.6ZM676.009 111.8C669.876 111.8 664.476 110.6 659.809 108.2C655.209 105.8 651.643 102.533 649.109 98.4C646.576 94.2 645.309 89.4333 645.309 84.1C645.309 78.7 646.543 73.9333 649.009 69.8C651.543 65.6 654.976 62.3333 659.309 60C663.643 57.6 668.543 56.4 674.009 56.4C679.276 56.4 684.009 57.5333 688.209 59.8C692.476 62 695.843 65.2 698.309 69.4C700.776 73.5333 702.009 78.5 702.009 84.3C702.009 84.9 701.976 85.6 701.909 86.4C701.843 87.1333 701.776 87.8333 701.709 88.5H658.009V79.4H693.509L687.509 82.1C687.509 79.3 686.943 76.8667 685.809 74.8C684.676 72.7333 683.109 71.1333 681.109 70C679.109 68.8 676.776 68.2 674.109 68.2C671.443 68.2 669.076 68.8 667.009 70C665.009 71.1333 663.443 72.7667 662.309 74.9C661.176 76.9667 660.609 79.4333 660.609 82.3V84.7C660.609 87.6333 661.243 90.2333 662.509 92.5C663.843 94.7 665.676 96.4 668.009 97.6C670.409 98.7333 673.209 99.3 676.409 99.3C679.276 99.3 681.776 98.8667 683.909 98C686.109 97.1333 688.109 95.8333 689.909 94.1L698.209 103.1C695.743 105.9 692.643 108.067 688.909 109.6C685.176 111.067 680.876 111.8 676.009 111.8Z" fill="#1F1F1F"/>
<rect x="483" y="57" width="16" height="54" fill="#1F1F1F"/>
<path fill-rule="evenodd" clip-rule="evenodd" d="M478 41.2526C478.08 41.2509 478.16 41.2501 478.24 41.2501C484.865 41.2501 490.238 46.8239 490.26 53.7082C490.281 46.8239 495.654 41.2501 502.279 41.2501C502.521 41.2501 502.761 41.2576 503 41.2723V41.2279C502.761 41.2426 502.521 41.2501 502.279 41.2501C495.721 41.2501 490.39 35.7882 490.262 29H490.257C490.129 35.7882 484.798 41.2501 478.24 41.2501C478.16 41.2501 478.08 41.2492 478 41.2476V41.2526ZM490.26 53.7921C490.259 53.8615 490.259 53.9308 490.257 54H490.262C490.261 53.9308 490.26 53.8615 490.26 53.7921Z" fill="#1F1F1F"/>
<rect x="287" y="61" width="48" height="12" fill="#1F1F1F"/>
<rect x="317" y="43" width="65" height="12" transform="rotate(90 317 43)" fill="#1F1F1F"/>
</svg>
