<svg width="30" height="30" viewBox="0 0 30 30" fill="none" xmlns="http://www.w3.org/2000/svg">
<g clip-path="url(#clip0_27_1671)">
<path d="M15.65 0.240066C15.4689 0.0851364 15.2384 0 15 0C14.7616 0 14.5311 0.0851364 14.35 0.240066L0 12.5401V27.0001C0 27.7957 0.31607 28.5588 0.87868 29.1214C1.44129 29.684 2.20435 30.0001 3 30.0001H11C11.2652 30.0001 11.5196 29.8947 11.7071 29.7072C11.8946 29.5196 12 29.2653 12 29.0001V23.0001C12 22.2044 12.3161 21.4414 12.8787 20.8787C13.4413 20.3161 14.2044 20.0001 15 20.0001C15.7956 20.0001 16.5587 20.3161 17.1213 20.8787C17.6839 21.4414 18 22.2044 18 23.0001V29.0001C18 29.2653 18.1054 29.5196 18.2929 29.7072C18.4804 29.8947 18.7348 30.0001 19 30.0001H27C27.7956 30.0001 28.5587 29.684 29.1213 29.1214C29.6839 28.5588 30 27.7957 30 27.0001V12.5401L15.65 0.240066Z" fill="#1F1F1F"/>
</g>
<defs>
<clipPath id="clip0_27_1671">
<rect width="30" height="30" fill="white"/>
</clipPath>
</defs>
</svg>
