<svg width="30" height="30" viewBox="0 0 30 30" fill="none" xmlns="http://www.w3.org/2000/svg">
<g clip-path="url(#clip0_27_1675)">
<path fill-rule="evenodd" clip-rule="evenodd" d="M4.7369 0C3.48059 0 2.27574 0.474106 1.3874 1.31802C0.499064 2.16193 0 3.30653 0 4.5V25.5C0 26.6935 0.499064 27.8381 1.3874 28.682C2.27574 29.5259 3.48059 30 4.7369 30H14.2107C15.467 30 16.6718 29.5259 17.5602 28.682C18.4485 27.8381 18.9476 26.6935 18.9476 25.5V4.5C18.9476 3.30653 18.4485 2.16193 17.5602 1.31802C16.6718 0.474106 15.467 0 14.2107 0H4.7369ZM20.9892 7.9395C21.2853 7.65829 21.6868 7.50032 22.1055 7.50032C22.5242 7.50032 22.9257 7.65829 23.2218 7.9395L29.5377 13.9395C29.8337 14.2208 30 14.6023 30 15C30 15.3977 29.8337 15.7792 29.5377 16.0605L23.2218 22.0605C22.924 22.3337 22.5252 22.4849 22.1112 22.4815C21.6972 22.4781 21.3012 22.3203 21.0084 22.0422C20.7157 21.7641 20.5496 21.3879 20.546 20.9946C20.5424 20.6013 20.7016 20.2224 20.9892 19.9395L24.6098 16.5H11.0528C10.634 16.5 10.2324 16.342 9.93626 16.0607C9.64015 15.7794 9.47379 15.3978 9.47379 15C9.47379 14.6022 9.64015 14.2206 9.93626 13.9393C10.2324 13.658 10.634 13.5 11.0528 13.5H24.6098L20.9892 10.0605C20.6932 9.77921 20.5269 9.39775 20.5269 9C20.5269 8.60225 20.6932 8.22079 20.9892 7.9395Z" fill="#1F1F1F"/>
</g>
<defs>
<clipPath id="clip0_27_1675">
<rect width="30" height="30" fill="white"/>
</clipPath>
</defs>
</svg>
