<svg width="43" height="43" viewBox="0 0 43 43" fill="none" xmlns="http://www.w3.org/2000/svg">
<path d="M21.4999 23.2917C20.9923 23.2917 20.5671 23.1197 20.2243 22.7757C19.8814 22.4317 19.7094 22.0064 19.7083 21.5C19.7083 20.9924 19.8803 20.5671 20.2243 20.2243C20.5683 19.8815 20.9935 19.7095 21.4999 19.7083C22.0076 19.7083 22.4334 19.8803 22.7774 20.2243C23.1214 20.5683 23.2928 20.9936 23.2916 21.5C23.2916 22.0076 23.1196 22.4335 22.7756 22.7775C22.4316 23.1215 22.0064 23.2929 21.4999 23.2917ZM21.4999 39.4167C19.0214 39.4167 16.6923 38.9461 14.5124 38.0048C12.3326 37.0636 10.4364 35.7874 8.82388 34.176C7.21138 32.5635 5.93511 30.6674 4.99509 28.4875C4.05506 26.3076 3.58445 23.9785 3.58325 21.5C3.58325 19.0215 4.05386 16.6924 4.99509 14.5125C5.93631 12.3326 7.21257 10.4365 8.82388 8.82396C10.4364 7.21146 12.3326 5.9352 14.5124 4.99517C16.6923 4.05514 19.0214 3.58453 21.4999 3.58334C23.9784 3.58334 26.3076 4.05395 28.4874 4.99517C30.6673 5.93639 32.5635 7.21266 34.176 8.82396C35.7885 10.4365 37.0653 12.3326 38.0065 14.5125C38.9478 16.6924 39.4178 19.0215 39.4166 21.5C39.4166 23.9785 38.946 26.3076 38.0048 28.4875C37.0635 30.6674 35.7873 32.5635 34.176 34.176C32.5635 35.7885 30.6673 37.0654 28.4874 38.0066C26.3076 38.9479 23.9784 39.4179 21.4999 39.4167ZM21.4999 35.8333C25.5013 35.8333 28.8905 34.4448 31.6676 31.6677C34.4447 28.8906 35.8333 25.5014 35.8333 21.5C35.8333 17.4986 34.4447 14.1094 31.6676 11.3323C28.8905 8.55521 25.5013 7.16667 21.4999 7.16667C17.4985 7.16667 14.1093 8.55521 11.3322 11.3323C8.55513 14.1094 7.16659 17.4986 7.16659 21.5C7.16659 25.5014 8.55513 28.8906 11.3322 31.6677C14.1093 34.4448 17.4985 35.8333 21.4999 35.8333ZM21.4999 35.8333C17.4985 35.8333 14.1093 34.4448 11.3322 31.6677C8.55513 28.8906 7.16659 25.5014 7.16659 21.5C7.16659 17.4986 8.55513 14.1094 11.3322 11.3323C14.1093 8.55521 17.4985 7.16667 21.4999 7.16667C25.5013 7.16667 28.8905 8.55521 31.6676 11.3323C34.4447 14.1094 35.8333 17.4986 35.8333 21.5C35.8333 25.5014 34.4447 28.8906 31.6676 31.6677C28.8905 34.4448 25.5013 35.8333 21.4999 35.8333ZM24.501 25.3521C24.6801 25.2625 24.8444 25.1431 24.9937 24.9938C25.143 24.8444 25.2624 24.6802 25.352 24.501L30.5926 13.3031C30.7419 13.0045 30.7049 12.7429 30.4815 12.5184C30.2582 12.2938 29.9966 12.2568 29.6968 12.4073L18.4989 17.6479C18.3197 17.7375 18.1555 17.8569 18.0062 18.0063C17.8569 18.1556 17.7374 18.3198 17.6478 18.499L12.4072 29.6969C12.2579 29.9955 12.2955 30.2571 12.5201 30.4816C12.7446 30.7062 13.0056 30.7432 13.303 30.5927L24.501 25.3521Z" fill="#1F1F1F"/>
</svg>
