<svg width="24" height="24" viewBox="0 0 24 24" fill="none" xmlns="http://www.w3.org/2000/svg">
<path d="M17.5131 1.36738L17.9793 1.83362C18.6218 2.47688 18.5246 3.6172 17.7604 4.38057L8.14555 13.9954L5.03042 15.135C4.63925 15.2788 4.25835 15.0923 4.18091 14.7201C4.15474 14.5851 4.16706 14.4454 4.21647 14.3171L5.37812 11.1751L14.9661 1.58628C15.7303 0.822902 16.8706 0.724122 17.5131 1.36738ZM7.72593 2.32357C7.82971 2.32357 7.93247 2.34401 8.02834 2.38372C8.12422 2.42344 8.21134 2.48165 8.28472 2.55503C8.3581 2.62841 8.41631 2.71552 8.45602 2.8114C8.49573 2.90728 8.51617 3.01004 8.51617 3.11381C8.51617 3.21759 8.49573 3.32035 8.45602 3.41622C8.41631 3.5121 8.3581 3.59922 8.28472 3.6726C8.21134 3.74598 8.12422 3.80419 8.02834 3.8439C7.93247 3.88361 7.82971 3.90405 7.72593 3.90405H4.56497C4.14579 3.90405 3.74379 4.07057 3.44739 4.36697C3.151 4.66336 2.98448 5.06537 2.98448 5.48454V14.9674C2.98448 15.3866 3.151 15.7886 3.44739 16.085C3.74379 16.3814 4.14579 16.5479 4.56497 16.5479H14.0479C14.467 16.5479 14.869 16.3814 15.1654 16.085C15.4618 15.7886 15.6283 15.3866 15.6283 14.9674V11.8065C15.6283 11.5969 15.7116 11.3959 15.8598 11.2477C16.008 11.0995 16.209 11.0162 16.4186 11.0162C16.6282 11.0162 16.8292 11.0995 16.9774 11.2477C17.1256 11.3959 17.2088 11.5969 17.2088 11.8065V14.9674C17.2088 15.8058 16.8758 16.6098 16.283 17.2026C15.6902 17.7954 14.8862 18.1284 14.0479 18.1284H4.56497C3.72662 18.1284 2.92262 17.7954 2.32982 17.2026C1.73703 16.6098 1.404 15.8058 1.404 14.9674V5.48454C1.404 4.6462 1.73703 3.84219 2.32982 3.2494C2.92262 2.6566 3.72662 2.32357 4.56497 2.32357H7.72593Z" fill="#1F1F1F"/>
</svg>
