<svg width="30" height="30" viewBox="0 0 30 30" fill="none" xmlns="http://www.w3.org/2000/svg">
<path fill-rule="evenodd" clip-rule="evenodd" d="M14.4574 20.9641C14.745 20.9641 15.0208 20.8499 15.2242 20.6465C15.4275 20.4432 15.5417 20.1674 15.5417 19.8798V4.01564L17.9706 6.85074C18.1577 7.0693 18.424 7.20457 18.7108 7.22681C18.9977 7.24904 19.2816 7.15641 19.5002 6.96929C19.7188 6.78218 19.854 6.5159 19.8763 6.22905C19.8985 5.94219 19.8059 5.65825 19.6187 5.43969L15.2815 0.379591C15.1797 0.260556 15.0533 0.164987 14.9111 0.0994592C14.7688 0.0339312 14.6141 0 14.4574 0C14.3008 0 14.146 0.0339312 14.0038 0.0994592C13.8615 0.164987 13.7352 0.260556 13.6334 0.379591L9.29613 5.43969C9.20348 5.54791 9.13305 5.67332 9.08887 5.80876C9.04468 5.9442 9.02761 6.08701 9.03862 6.22905C9.04963 6.37108 9.0885 6.50956 9.15303 6.63657C9.21755 6.76358 9.30646 6.87664 9.41468 6.96929C9.5229 7.06194 9.64831 7.13237 9.78375 7.17656C9.91919 7.22074 10.062 7.23781 10.204 7.22681C10.3461 7.2158 10.4845 7.17692 10.6116 7.1124C10.7386 7.04787 10.8516 6.95896 10.9443 6.85074L13.3731 4.01708V19.8798C13.3731 20.4783 13.8589 20.9641 14.4574 20.9641Z" fill="#1F1F1F"/>
<path d="M20.2404 11.2053C19.2255 11.2053 18.718 11.2053 18.3523 11.4497C18.195 11.5549 18.0599 11.69 17.9547 11.8472C17.7104 12.213 17.7104 12.7205 17.7104 13.7354V19.8798C17.7104 20.7425 17.3676 21.5699 16.7576 22.18C16.1476 22.79 15.3202 23.1327 14.4574 23.1327C13.5947 23.1327 12.7673 22.79 12.1573 22.18C11.5472 21.5699 11.2045 20.7425 11.2045 19.8798V13.7354C11.2045 12.7205 11.2045 12.213 10.9602 11.8472C10.855 11.69 10.7199 11.5549 10.5626 11.4497C10.1968 11.2053 9.68938 11.2053 8.67446 11.2053C4.5859 11.2053 2.54017 11.2053 1.27081 12.4761C-8.61731e-08 13.7455 0 15.7883 0 19.8784V21.3241C0 25.4156 -8.61731e-08 27.4584 1.27081 28.7292C2.54017 30 4.5859 30 8.67446 30H20.2404C24.329 30 26.3747 30 27.6441 28.7292C28.9149 27.4584 28.9149 25.4141 28.9149 21.3255V19.8798C28.9149 15.7898 28.9149 13.7455 27.6441 12.4761C26.3747 11.2053 24.329 11.2053 20.2404 11.2053Z" fill="#1F1F1F"/>
</svg>
