<svg width="24" height="24" viewBox="0 0 24 24" fill="none" xmlns="http://www.w3.org/2000/svg">
<path fill-rule="evenodd" clip-rule="evenodd" d="M3.75722 5.75725C4.76881 4.746 6.10829 4.12927 7.53433 4.01817C8.96037 3.90706 10.3792 4.30889 11.5352 5.15125C12.7565 4.26767 14.2655 3.87596 15.7623 4.05398C17.2591 4.232 18.6341 4.9667 19.614 6.11206C20.594 7.25742 21.1071 8.72957 21.0513 10.2359C20.9956 11.7422 20.3751 13.1724 19.3132 14.2422L13.6562 19.8992C13.0936 20.4617 12.3307 20.7776 11.5352 20.7776C10.7397 20.7776 9.9768 20.4617 9.41422 19.8992L3.75722 14.2432C2.63209 13.118 2 11.592 2 10.0007C2 8.40952 2.63209 6.88246 3.75722 5.75725Z" fill="#FBFBFB"/>
</svg>
