<svg width="40" height="40" viewBox="0 0 40 40" fill="none" xmlns="http://www.w3.org/2000/svg">
<circle cx="20" cy="20" r="20" fill="#1F1F1F"/>
<path fill-rule="evenodd" clip-rule="evenodd" d="M11.7572 13.7572C12.7688 12.746 14.1083 12.1293 15.5343 12.0182C16.9604 11.9071 18.3792 12.3089 19.5352 13.1512C20.7565 12.2677 22.2655 11.876 23.7623 12.054C25.2591 12.232 26.6341 12.9667 27.614 14.1121C28.594 15.2574 29.1071 16.7296 29.0513 18.2359C28.9956 19.7422 28.3751 21.1724 27.3132 22.2422L21.6562 27.8992C21.0936 28.4617 20.3307 28.7776 19.5352 28.7776C18.7397 28.7776 17.9768 28.4617 17.4142 27.8992L11.7572 22.2432C10.6321 21.118 10 19.592 10 18.0007C10 16.4095 10.6321 14.8825 11.7572 13.7572Z" fill="#ED4323"/>
</svg>
