<svg width="30" height="30" viewBox="0 0 30 30" fill="none" xmlns="http://www.w3.org/2000/svg">
<g clip-path="url(#clip0_27_1672)">
<path fill-rule="evenodd" clip-rule="evenodd" d="M12.6257 0.307617C10.6614 0.307785 8.72569 0.777687 6.97996 1.67812C5.23422 2.57855 3.72913 3.8834 2.59026 5.48381C1.45139 7.08422 0.711753 8.93377 0.433067 10.8782C0.154381 12.8226 0.344725 14.8054 0.988217 16.6613C1.63171 18.5171 2.70969 20.1922 4.13222 21.5467C5.55476 22.9013 7.28059 23.896 9.16574 24.4478C11.0509 24.9997 13.0407 25.0928 14.9691 24.7193C16.8976 24.3458 18.7087 23.5165 20.2515 22.3007L25.544 27.5932C25.8173 27.8572 26.1834 28.0033 26.5634 27.9999C26.9434 27.9966 27.3068 27.8442 27.5755 27.5755C27.8442 27.3068 27.9966 26.9434 27.9999 26.5634C28.0032 26.1834 27.8572 25.8173 27.5932 25.544L22.3007 20.2515C23.7325 18.4351 24.624 16.2523 24.8732 13.9529C25.1223 11.6535 24.7191 9.33038 23.7096 7.24943C22.7001 5.16848 21.1252 3.41377 19.165 2.18612C17.2048 0.958463 14.9386 0.307462 12.6257 0.307617ZM3.20583 12.6258C3.20583 10.1275 4.19828 7.73158 5.96485 5.96502C7.73142 4.19846 10.1274 3.20602 12.6257 3.20602C15.124 3.20602 17.52 4.19846 19.2866 5.96502C21.0532 7.73158 22.0456 10.1275 22.0456 12.6258C22.0456 15.1241 21.0532 17.5201 19.2866 19.2866C17.52 21.0532 15.124 22.0457 12.6257 22.0457C10.1274 22.0457 7.73142 21.0532 5.96485 19.2866C4.19828 17.5201 3.20583 15.1241 3.20583 12.6258Z" fill="#1F1F1F"/>
</g>
<defs>
<clipPath id="clip0_27_1672">
<rect width="30" height="30" fill="white"/>
</clipPath>
</defs>
</svg>
